<svg xmlns="http://www.w3.org/2000/svg" viewBox="0 0 64 96" width="64" height="96" role="img" aria-label="Small Joker">
  <defs>
    <linearGradient id="smBg" x1="0" y1="0" x2="0" y2="1">
      <stop offset="0" stop-color="#f8fafc"/>
      <stop offset="1" stop-color="#cbd5e1"/>
    </linearGradient>
    <linearGradient id="smHat" x1="0" y1="0" x2="0" y2="1">
      <stop offset="0" stop-color="#1e3a8a"/>
      <stop offset="1" stop-color="#0f172a"/>
    </linearGradient>
    <linearGradient id="smCollar" x1="0" y1="0" x2="0" y2="1">
      <stop offset="0" stop-color="#94a3b8"/>
      <stop offset="1" stop-color="#334155"/>
    </linearGradient>
  </defs>
  <rect x="1" y="1" width="62" height="94" rx="8" ry="8" fill="url(#smBg)" stroke="#334155" stroke-width="1.5"/>
  <text x="6" y="14" font-family="serif" font-weight="bold" font-size="11" fill="#0f172a">j</text>
  <text x="58" y="90" font-family="serif" font-weight="bold" font-size="11" fill="#0f172a" text-anchor="end">j</text>
  <g transform="translate(32 50)">
    <path d="M-14 -14 Q-18 -28 -8 -24 Q0 -32 8 -24 Q18 -28 14 -14 Z" fill="url(#smHat)" stroke="#0f172a" stroke-width="1"/>
    <circle cx="-14" cy="-14" r="3" fill="#e2e8f0" stroke="#475569" stroke-width="0.6"/>
    <circle cx="0" cy="-26" r="3" fill="#e2e8f0" stroke="#475569" stroke-width="0.6"/>
    <circle cx="14" cy="-14" r="3" fill="#e2e8f0" stroke="#475569" stroke-width="0.6"/>
    <circle cx="0" cy="-2" r="13" fill="#e2e8f0" stroke="#475569" stroke-width="1"/>
    <circle cx="-5" cy="-4" r="1.6" fill="#0f172a"/>
    <circle cx="5" cy="-4" r="1.6" fill="#0f172a"/>
    <path d="M-5 4 Q0 1 5 4" stroke="#0f172a" stroke-width="1.6" fill="none" stroke-linecap="round"/>
    <path d="M-13 11 Q0 18 13 11 L11 19 Q0 24 -11 19 Z" fill="url(#smCollar)" stroke="#0f172a" stroke-width="1"/>
    <circle cx="-9" cy="16" r="1.4" fill="#1e3a8a"/>
    <circle cx="0" cy="19" r="1.4" fill="#1e3a8a"/>
    <circle cx="9" cy="16" r="1.4" fill="#1e3a8a"/>
  </g>
  <text x="32" y="88" font-family="sans-serif" font-weight="bold" font-size="8" fill="#0f172a" text-anchor="middle" letter-spacing="1">joker</text>
</svg>
